REM DIRINDEX 1\8,1\2\11,1\3\12,1\3\14,1\5\15,1\5\16,1\6\17,1\6\18,1\4\19,1\4\20,1\4\21,1\4\22,1\7\23,1\7\24,1\7\25,1\2\9\26,1\2\9\27,1\2\10\28,1\2\10\29,1\2\10\30,1\2\10\31,1\2\10\32,1\3\13\33,1\3\13\34,1\3\13\35
REM DIRNAME folder01,folder02,folder03,folder04,folder05,folder06,folder07,folder08,folder09,folder10,folder11,folder12,folder13,folder14,folder15,folder16,folder17,folder18,folder19,folder20,folder21,folder22,folder23,folder24,folder25,folder26,folder27,folder28,folder29,folder30,folder31,folder32,folder33,folder34,folder35
TITLE ""
FILE "119 119_UNIT7_SET3.mp3" MP3
  TRACK 01 AUDIO
    TITLE "14:cjc123_2452"
    INDEX 01 00:00:00
  TRACK 02 AUDIO
    TITLE "0:"
    INDEX 01 00:02:47
  TRACK 03 AUDIO
    TITLE "33:cjc123_2453"
    INDEX 01 00:03:21
  TRACK 04 AUDIO
    TITLE "0:"
    INDEX 01 00:04:31
  TRACK 05 AUDIO
    TITLE "34:cjc123_2454"
    INDEX 01 00:04:64
  TRACK 06 AUDIO
    TITLE "0:"
    INDEX 01 00:05:67
  TRACK 07 AUDIO
    TITLE "35:cjc123_2455"
    INDEX 01 00:06:55
  TRACK 08 AUDIO
    TITLE "0:"
    INDEX 01 00:12:38
  TRACK 09 AUDIO
    TITLE "33:cjc123_2456"
    INDEX 01 00:13:28
  TRACK 10 AUDIO
    TITLE "0:"
    INDEX 01 00:14:74
  TRACK 11 AUDIO
    TITLE "34:cjc123_2457"
    INDEX 01 00:15:36
  TRACK 12 AUDIO
    TITLE "0:"
    INDEX 01 00:17:02
  TRACK 13 AUDIO
    TITLE "35:cjc123_2458"
    INDEX 01 00:17:61
  TRACK 14 AUDIO
    TITLE "0:"
    INDEX 01 00:21:47
  TRACK 15 AUDIO
    TITLE "33:cjc123_2459"
    INDEX 01 00:22:29
  TRACK 16 AUDIO
    TITLE "0:"
    INDEX 01 00:23:51
  TRACK 17 AUDIO
    TITLE "34:cjc123_2460"
    INDEX 01 00:23:71
  TRACK 18 AUDIO
    TITLE "0:"
    INDEX 01 00:25:17
  TRACK 19 AUDIO
    TITLE "35:cjc123_2461"
    INDEX 01 00:25:60
  TRACK 20 AUDIO
    TITLE "0:"
    INDEX 01 00:30:16
  TRACK 21 AUDIO
    TITLE "33:cjc123_2462"
    INDEX 01 00:30:67
  TRACK 22 AUDIO
    TITLE "0:"
    INDEX 01 00:32:00
  TRACK 23 AUDIO
    TITLE "34:cjc123_2463"
    INDEX 01 00:32:23
  TRACK 24 AUDIO
    TITLE "0:"
    INDEX 01 00:33:38
  TRACK 25 AUDIO
    TITLE "35:cjc123_2464"
    INDEX 01 00:34:18
  TRACK 26 AUDIO
    TITLE "0:"
    INDEX 01 00:38:31
  TRACK 27 AUDIO
    TITLE "33:cjc123_2465"
    INDEX 01 00:39:07
  TRACK 28 AUDIO
    TITLE "0:"
    INDEX 01 00:40:13
  TRACK 29 AUDIO
    TITLE "34:cjc123_2466"
    INDEX 01 00:40:44
  TRACK 30 AUDIO
    TITLE "0:"
    INDEX 01 00:41:49
  TRACK 31 AUDIO
    TITLE "35:cjc123_2467"
    INDEX 01 00:42:25
  TRACK 32 AUDIO
    TITLE "0:"
    INDEX 01 00:45:41
  TRACK 33 AUDIO
    TITLE "33:cjc123_2468"
    INDEX 01 00:46:25
  TRACK 34 AUDIO
    TITLE "0:"
    INDEX 01 00:47:30
  TRACK 35 AUDIO
    TITLE "34:cjc123_2469"
    INDEX 01 00:47:56
  TRACK 36 AUDIO
    TITLE "0:"
    INDEX 01 00:48:61
  TRACK 37 AUDIO
    TITLE "35:cjc123_2470"
    INDEX 01 00:49:37
  TRACK 38 AUDIO
    TITLE "0:"
    INDEX 01 00:54:13
  TRACK 39 AUDIO
    TITLE "33:cjc123_2471"
    INDEX 01 00:54:66
  TRACK 40 AUDIO
    TITLE "0:"
    INDEX 01 00:56:08
  TRACK 41 AUDIO
    TITLE "34:cjc123_2472"
    INDEX 01 00:56:35
  TRACK 42 AUDIO
    TITLE "0:"
    INDEX 01 00:57:52
  TRACK 43 AUDIO
    TITLE "35:cjc123_2473"
    INDEX 01 00:58:24
  TRACK 44 AUDIO
    TITLE "0:"
    INDEX 01 01:04:37
  TRACK 45 AUDIO
    TITLE "33:cjc123_2474"
    INDEX 01 01:05:15
  TRACK 46 AUDIO
    TITLE "0:"
    INDEX 01 01:06:45
  TRACK 47 AUDIO
    TITLE "34:cjc123_2475"
    INDEX 01 01:06:69
  TRACK 48 AUDIO
    TITLE "0:"
    INDEX 01 01:08:17
  TRACK 49 AUDIO
    TITLE "35:cjc123_2476"
    INDEX 01 01:08:74
  TRACK 50 AUDIO
    TITLE "0:"
    INDEX 01 01:12:52
  TRACK 51 AUDIO
    TITLE "33:cjc123_2477"
    INDEX 01 01:13:26
  TRACK 52 AUDIO
    TITLE "0:"
    INDEX 01 01:14:49
  TRACK 53 AUDIO
    TITLE "34:cjc123_2478"
    INDEX 01 01:14:74
  TRACK 54 AUDIO
    TITLE "0:"
    INDEX 01 01:16:11
  TRACK 55 AUDIO
    TITLE "35:cjc123_2479"
    INDEX 01 01:16:63
  TRACK 56 AUDIO
    TITLE "0:"
    INDEX 01 01:21:14
  TRACK 57 AUDIO
    TITLE "33:cjc123_2480"
    INDEX 01 01:21:61
  TRACK 58 AUDIO
    TITLE "0:"
    INDEX 01 01:22:70
  TRACK 59 AUDIO
    TITLE "34:cjc123_2481"
    INDEX 01 01:23:26
  TRACK 60 AUDIO
    TITLE "0:"
    INDEX 01 01:24:41
  TRACK 61 AUDIO
    TITLE "35:cjc123_2482"
    INDEX 01 01:25:17
  TRACK 62 AUDIO
    TITLE "0:"
    INDEX 01 01:30:32
  TRACK 63 AUDIO
    TITLE "33:cjc123_2483"
    INDEX 01 01:31:04
  TRACK 64 AUDIO
    TITLE "0:"
    INDEX 01 01:32:12
  TRACK 65 AUDIO
    TITLE "34:cjc123_2484"
    INDEX 01 01:32:27
  TRACK 66 AUDIO
    TITLE "0:"
    INDEX 01 01:33:36
  TRACK 67 AUDIO
    TITLE "35:cjc123_2485"
    INDEX 01 01:34:16
  TRACK 68 AUDIO
    TITLE "0:"
    INDEX 01 01:38:26
  TRACK 69 AUDIO
    TITLE "33:cjc123_2486"
    INDEX 01 01:39:04
  TRACK 70 AUDIO
    TITLE "0:"
    INDEX 01 01:39:68
  TRACK 71 AUDIO
    TITLE "34:cjc123_2487"
    INDEX 01 01:40:15
  TRACK 72 AUDIO
    TITLE "0:"
    INDEX 01 01:41:20
  TRACK 73 AUDIO
    TITLE "35:cjc123_2488"
    INDEX 01 01:41:73
  TRACK 74 AUDIO
    TITLE "0:"
    INDEX 01 01:47:46
  TRACK 75 AUDIO
    TITLE "33:cjc123_2489"
    INDEX 01 01:48:30
  TRACK 76 AUDIO
    TITLE "0:"
    INDEX 01 01:49:39
  TRACK 77 AUDIO
    TITLE "34:cjc123_2490"
    INDEX 01 01:49:65
  TRACK 78 AUDIO
    TITLE "0:"
    INDEX 01 01:50:70
  TRACK 79 AUDIO
    TITLE "35:cjc123_2491"
    INDEX 01 01:51:44
  TRACK 80 AUDIO
    TITLE "0:"
    INDEX 01 01:57:35
  TRACK 81 AUDIO
    TITLE "33:cjc123_2492"
    INDEX 01 01:58:11
  TRACK 82 AUDIO
    TITLE "0:"
    INDEX 01 01:59:14
  TRACK 83 AUDIO
    TITLE "34:cjc123_2493"
    INDEX 01 01:59:30
  TRACK 84 AUDIO
    TITLE "0:"
    INDEX 01 02:00:31
  TRACK 85 AUDIO
    TITLE "35:cjc123_2494"
    INDEX 01 02:01:03
  TRACK 86 AUDIO
    TITLE "0:"
    INDEX 01 02:04:74
  TRACK 87 AUDIO
    TITLE "33:cjc123_2495"
    INDEX 01 02:05:48
  TRACK 88 AUDIO
    TITLE "0:"
    INDEX 01 02:06:65
  TRACK 89 AUDIO
    TITLE "34:cjc123_2496"
    INDEX 01 02:07:04
  TRACK 90 AUDIO
    TITLE "0:"
    INDEX 01 02:08:19
  TRACK 91 AUDIO
    TITLE "35:cjc123_2497"
    INDEX 01 02:08:70
  TRACK 92 AUDIO
    TITLE "0:"
    INDEX 01 02:11:35
